<svg xmlns="http://www.w3.org/2000/svg" width="14" height="15" viewBox="0 0 14 15">
    <defs>
        <style>
            .cls-2{fill:#fff}
        </style>
    </defs>
    <g id="accounting" transform="translate(-36.812 -7.493)">
        <rect id="Rectangle_18" width="14" height="15" fill="#999c9e" rx="1" transform="translate(36.812 7.493)"/>
        <g id="Group_1388" transform="translate(38.822 9.234)">
            <path id="Path_23" d="M269.319 298.808h.9c.233 0 .422-.288.422-.644s-.189-.644-.422-.644h-.9c-.233 0-.423.288-.423.644s.189.644.423.644z" class="cls-2" transform="translate(-268.896 -292.395)"/>
            <path id="Path_24" d="M318.571 297.521h-.9c-.233 0-.423.288-.423.644s.189.644.423.644h.9c.233 0 .423-.288.423-.644s-.194-.644-.423-.644z" class="cls-2" transform="translate(-314.528 -292.395)"/>
            <path id="Path_25" d="M366.926 297.521h-.9c-.233 0-.423.288-.423.644s.189.644.423.644h.9c.234 0 .423-.288.423-.644s-.189-.644-.423-.644z" class="cls-2" transform="translate(-360.158 -292.395)"/>
            <path id="Path_26" d="M415.283 297.521h-.9c-.233 0-.423.288-.423.644s.189.644.423.644h.9c.233 0 .423-.288.423-.644s-.189-.644-.423-.644z" class="cls-2" transform="translate(-405.791 -292.395)"/>
            <path id="Path_27" d="M269.319 337.808h.9c.233 0 .422-.288.422-.644s-.189-.644-.422-.644h-.9c-.233 0-.423.288-.423.644s.189.644.423.644z" class="cls-2" transform="translate(-268.896 -329.198)"/>
            <path id="Path_43" d="M269.319 337.808h.9c.233 0 .422-.288.422-.644s-.189-.644-.422-.644h-.9c-.233 0-.423.288-.423.644s.189.644.423.644z" class="cls-2" transform="translate(-268.896 -326.623)"/>
            <path id="Path_28" d="M318.571 336.521h-.9c-.233 0-.423.288-.423.644s.189.644.423.644h.9c.233 0 .423-.288.423-.644s-.194-.644-.423-.644z" class="cls-2" transform="translate(-314.528 -329.198)"/>
            <path id="Path_44" d="M318.571 336.521h-.9c-.233 0-.423.288-.423.644s.189.644.423.644h.9c.233 0 .423-.288.423-.644s-.194-.644-.423-.644z" class="cls-2" transform="translate(-314.528 -326.623)"/>
            <path id="Path_29" d="M366.926 336.521h-.9c-.233 0-.423.288-.423.644s.189.644.423.644h.9c.234 0 .423-.288.423-.644s-.189-.644-.423-.644z" class="cls-2" transform="translate(-360.158 -329.198)"/>
            <path id="Path_45" d="M366.926 336.521h-.9c-.233 0-.423.288-.423.644s.189.644.423.644h.9c.234 0 .423-.288.423-.644s-.189-.644-.423-.644z" class="cls-2" transform="translate(-360.158 -326.623)"/>
            <path id="Path_30" d="M415.283 336.521h-.9c-.233 0-.423.288-.423.644s.189.644.423.644h.9c.233 0 .423-.288.423-.644s-.189-.644-.423-.644z" class="cls-2" transform="translate(-405.791 -329.198)"/>
            <path id="Path_46" d="M415.283 336.521h-.9c-.233 0-.423.288-.423.644s.189.644.423.644h.9c.233 0 .423-.288.423-.644s-.189-.644-.423-.644z" class="cls-2" transform="translate(-405.791 -326.623)"/>
            <path id="Path_38" d="M278.811 207.277a.748.748 0 0 0-.748-.748h-8.42a.748.748 0 0 0-.748.748v2.162a.748.748 0 0 0 .748.747h8.42a.748.748 0 0 0 .748-.747z" class="cls-2" transform="translate(-268.896 -206.53)"/>
        </g>
    </g>
</svg>
