<svg xmlns="http://www.w3.org/2000/svg" width="16.092" height="15.26" viewBox="0 0 16.092 15.26">
    <defs>
        <style>
            .cls-1{fill:#999c9e}
        </style>
    </defs>
    <g id="agenda" transform="translate(-2.5 -5)">
        <path id="Path_109" d="M12.763 15.958a1.452 1.452 0 0 1-.457.085 1.307 1.307 0 0 1-1.05-.525 1.275 1.275 0 0 1-.2-1.152l.373-1.27a2.927 2.927 0 0 1 .711-1.236l2.473-2.608V5.661A.651.651 0 0 0 13.949 5H3.161a.661.661 0 0 0-.661.661v12.651a1.944 1.944 0 0 0 1.931 1.948h9.518a.661.661 0 1 0 0-1.321H4.431a.61.61 0 1 1 0-1.219h9.518a.651.651 0 0 0 .661-.661V15.2a3.416 3.416 0 0 1-.61.3zm-6.622-5.521a.51.51 0 0 1-.508-.508V8.1a.51.51 0 0 1 .508-.508h4.827a.5.5 0 0 1 .508.508v1.828a.51.51 0 0 1-.508.508z" class="cls-1"/>
        <path id="Path_110" d="M72.028 24.257l-.576-.542a.691.691 0 0 0-.965.034L67.1 27.356l1.592 1.473 3.387-3.607a.692.692 0 0 0-.051-.965z" class="cls-1" transform="translate(-53.659 -15.396)"/>
        <path id="Path_111" d="M59.049 53.069l1.236-.457a2.269 2.269 0 0 0 .61-.373L59.354 50.8a2.343 2.343 0 0 0-.339.644l-.373 1.256a.312.312 0 0 0 .407.369z" class="cls-1" transform="translate(-46.624 -38.043)"/>
    </g>
</svg>
