<svg xmlns="http://www.w3.org/2000/svg" width="17.47" height="18.498" viewBox="0 0 17.47 18.498">
    <g>
        <path fill="#999c9e" d="M24.735 14a5 5 0 0 0-3.653 1.566 6.892 6.892 0 0 0-1.742 3.564l-.891 4.93a2.124 2.124 0 0 1-1.164 1.686 3.611 3.611 0 0 0-.843.674A2.012 2.012 0 0 0 16 27.729V28.9a.514.514 0 0 0 .514.514h5.146a3.075 3.075 0 1 0 6.15 0h5.146a.514.514 0 0 0 .514-.514v-1.171a2.012 2.012 0 0 0-.442-1.309 3.611 3.611 0 0 0-.843-.674 2.124 2.124 0 0 1-1.164-1.686l-.891-4.93a6.892 6.892 0 0 0-1.742-3.565A5 5 0 0 0 24.735 14z" transform="translate(-16 -14)"/>
    </g>
</svg>
