<svg xmlns="http://www.w3.org/2000/svg" width="23.991" height="18.498" viewBox="0 0 23.991 18.498">
    <g>
        <path fill="#999c9e" d="M20.6 9.235a13.879 13.879 0 0 0-8.606-2.807C5.37 6.428 0 10.569 0 15.677a7.843 7.843 0 0 0 2.144 5.276l-1.7 3.973 4.35-1.85a14.38 14.38 0 0 0 7.2 1.85 14.868 14.868 0 0 0 5.552-1.049c3.83-1.544 6.444-4.636 6.444-8.2a8.273 8.273 0 0 0-3.39-6.442zM6.877 16.928a1.464 1.464 0 1 1 1.464-1.464 1.464 1.464 0 0 1-1.464 1.464zm5.119 0a1.464 1.464 0 1 1 1.464-1.464A1.464 1.464 0 0 1 12 16.928zm5.119 0a1.463 1.463 0 1 1 1.463-1.463 1.463 1.463 0 0 1-1.463 1.462z" transform="translate(0 -6.428)"/>
    </g>
</svg>
