<svg xmlns="http://www.w3.org/2000/svg" width="20.032" height="14.594" viewBox="0 0 20.032 14.594">
    <defs>
        <style>
            .cls-1{fill:#999c9e}
        </style>
    </defs>
    <g id="Group_1439" transform="translate(-1761 -27.398)">
        <g id="noun_logout_2021290" transform="translate(1746 5.016)">
            <path id="Path_10" d="M43.824 35.529a.654.654 0 0 0 .706-.111l7.3-6.642a.654.654 0 0 0 0-.967l-7.3-6.642a.654.654 0 0 0-1.1.484V25.7h-6.776a.654.654 0 0 0-.654.654v3.815a.654.654 0 0 0 .654.654h6.778v4.116a.654.654 0 0 0 .392.59z" class="cls-1" transform="translate(-17.008 1.389)"/>
        </g>
        <path id="Subtraction_1" d="M8 13.92H3a3 3 0 0 1-3-3V3a3 3 0 0 1 3-3h5v.928H3a2 2 0 0 0-2 2v8.065a2 2 0 0 0 2 2h5v.927z" class="cls-1" transform="translate(1761 27.732)"/>
    </g>
</svg>
