<svg xmlns="http://www.w3.org/2000/svg" width="24.978" height="16.099" viewBox="0 0 24.978 16.099">
    <defs>
        <style>
            .cls-1{fill:#999c9e}
        </style>
    </defs>
    <g id="mail" transform="translate(0 -91)">
        <path id="Path_5" d="M24.631 111.933l-11.7 9.077a.73.73 0 0 1-.878 0l-11.7-9.077A2.176 2.176 0 0 0 0 113.107v11.708a2.2 2.2 0 0 0 2.2 2.2h20.582a2.2 2.2 0 0 0 2.2-2.2v-11.708a2.176 2.176 0 0 0-.351-1.174z" class="cls-1" transform="translate(0 -19.912)"/>
        <path id="Path_6" d="M53.046 91H32.459a2.165 2.165 0 0 0-.643.107L42.753 99.6l10.937-8.491a2.165 2.165 0 0 0-.644-.109z" class="cls-1" transform="translate(-30.264)"/>
    </g>
</svg>
