<svg xmlns="http://www.w3.org/2000/svg" width="16.264" height="15" viewBox="0 0 16.264 15">
    <defs>
        <style>
            .cls-1{fill:#999c9e}
        </style>
    </defs>
    <g id="patient" transform="translate(0 -1.261)">
        <path id="Path_18" d="M16.235 20.132H15.9a1.187 1.187 0 0 1-1.186-1.186v-1.525h-1.528A1.187 1.187 0 0 1 12 16.235V15.9a1.187 1.187 0 0 1 1.186-1.186h1.525v-1.528A1.187 1.187 0 0 1 15.9 12h.339a1.187 1.187 0 0 1 1.186 1.186v1.525h1.525a1.187 1.187 0 0 1 1.182 1.189v.339a1.187 1.187 0 0 1-1.186 1.186h-1.525v1.525a1.187 1.187 0 0 1-1.186 1.182z" class="cls-1" transform="translate(-3.868 -3.871)"/>
        <circle id="Ellipse_2" cx="3" cy="3" r="3" class="cls-1" transform="translate(3.185 1.261)"/>
        <path id="Path_19" d="M6.777 16.235V15.9a2.544 2.544 0 0 1 2.541-2.541h.169v-.169a2.52 2.52 0 0 1 .232-1.047A3.363 3.363 0 0 0 8.81 12H3.388A3.389 3.389 0 0 0 0 15.388v2.2a.508.508 0 0 0 .508.508H7.6a2.527 2.527 0 0 1-.823-1.861z" class="cls-1" transform="translate(0 -3.871)"/>
    </g>
</svg>
