<svg xmlns="http://www.w3.org/2000/svg" width="14.998" height="15.261" viewBox="0 0 14.998 15.261">
    <g>
        <path fill="#999c9e" d="M8.886 15.261h-2.87a1.031 1.031 0 0 1-.991-.84l-.01-.071-.132-1.44a6.527 6.527 0 0 1-.7-.407l-1.3.591a.941.941 0 0 1-.76.072 1.037 1.037 0 0 1-.544-.456L.142 10.237a1.02 1.02 0 0 1 .277-1.344l.025-.018 1.223-.843a2.671 2.671 0 0 1-.02-.409A4.114 4.114 0 0 1 1.67 7.2L.483 6.365a1.023 1.023 0 0 1-.271-1.344l1.421-2.443a1.033 1.033 0 0 1 .886-.506 1.022 1.022 0 0 1 .383.074l.032.013 1.305.6a6.015 6.015 0 0 1 .707-.405l.13-1.423a1.012 1.012 0 0 1 1-.931h2.872a1.03 1.03 0 0 1 .993.84l.011.072.13 1.442a6.462 6.462 0 0 1 .7.407l1.289-.591a.97.97 0 0 1 1.315.386l1.467 2.471a1.023 1.023 0 0 1-.274 1.344h-.01l-1.169.842a4.083 4.083 0 0 1 .022.418c0 .144-.007.29-.022.434l1.09.835a1.02 1.02 0 0 1 .268 1.344l-1.421 2.446a1.028 1.028 0 0 1-1.27.431l-.031-.014-1.309-.6a5.955 5.955 0 0 1-.707.409l-.13 1.419a1.012 1.012 0 0 1-1.004.926zM7.526 5.233H7.5a2.373 2.373 0 1 0 1.7.695 2.359 2.359 0 0 0-1.677-.695z" transform="translate(-530.357 155) translate(530.358 -155)"/>
    </g>
</svg>
